{
  "accessors": [
    {
      "bufferView": 2,
      "componentType": 5126,
      "count": 508,
      "max": [
        920.0001220703125,
        920.0001220703125,
        477.15380859375
      ],
      "min": [
        -920.0001220703125,
        -920.0001220703125,
        0.0
      ],
      "type": "VEC3"
    },
    {
      "bufferView": 2,
      "byteOffset": 6096,
      "componentType": 5126,
      "count": 508,
      "max": [
        1.0,
        1.0,
        0.0
      ],
      "min": [
        -1.0,
        -1.0,
        -1.0
      ],
      "type": "VEC3"
    },
    {
      "bufferView": 1,
      "componentType": 5126,
      "count": 508,
      "max": [
        1.0000009536743164,
        0.8587599992752075
      ],
      "min": [
        5.199999941396527e-05,
        0.005431999918073416
      ],
      "type": "VEC2"
    },
    {
      "bufferView": 0,
      "componentType": 5125,
      "count": 1479,
      "type": "SCALAR"
    },
    {
      "bufferView": 2,
      "byteOffset": 12192,
      "componentType": 5126,
      "count": 2023,
      "max": [
        920.0001220703125,
        920.0001220703125,
        566.8365478515625
      ],
      "min": [
        -920.0001220703125,
        -920.0001220703125,
        110.4365234375
      ],
      "type": "VEC3"
    },
    {
      "bufferView": 2,
      "byteOffset": 36468,
      "componentType": 5126,
      "count": 2023,
      "max": [
        0.6488239169120789,
        0.6422972679138184,
        0.9999479055404663
      ],
      "min": [
        -0.8689972162246704,
        -0.6283718347549438,
        0.47729843854904175
      ],
      "type": "VEC3"
    },
    {
      "bufferView": 1,
      "byteOffset": 4064,
      "componentType": 5126,
      "count": 2023,
      "max": [
        0.7941340208053589,
        0.7615479826927185
      ],
      "min": [
        0.1920190006494522,
        0.009057000279426575
      ],
      "type": "VEC2"
    },
    {
      "bufferView": 0,
      "byteOffset": 5916,
      "componentType": 5125,
      "count": 11466,
      "type": "SCALAR"
    }
  ],
  "asset": {
    "extras": {
      "author": "seeco (https://sketchfab.com/seeco)",
      "license": "CC-BY-4.0 (http://creativecommons.org/licenses/by/4.0/)",
      "source": "https://sketchfab.com/3d-models/volcan-la-soufriere-66304ce2a7834450aecd3dbdc897c895",
      "title": "Volcan — La Soufrière"
    },
    "generator": "Sketchfab-12.68.0",
    "version": "2.0"
  },
  "bufferViews": [
    {
      "buffer": 0,
      "byteLength": 51780,
      "name": "floatBufferViews",
      "target": 34963
    },
    {
      "buffer": 0,
      "byteLength": 20248,
      "byteOffset": 51780,
      "byteStride": 8,
      "name": "floatBufferViews",
      "target": 34962
    },
    {
      "buffer": 0,
      "byteLength": 60744,
      "byteOffset": 72028,
      "byteStride": 12,
      "name": "floatBufferViews",
      "target": 34962
    }
  ],
  "buffers": [
    {
      "byteLength": 132772,
      "uri": "scene.bin"
    }
  ],
  "images": [
    {
      "uri": "textures/ground_baseColor.jpeg"
    },
    {
      "uri": "textures/land_baseColor.png"
    }
  ],
  "materials": [
    {
      "name": "ground",
      "pbrMetallicRoughness": {
        "baseColorTexture": {
          "index": 0
        },
        "metallicFactor": 0.0
      }
    },
    {
      "name": "land",
      "pbrMetallicRoughness": {
        "baseColorTexture": {
          "index": 1
        },
        "metallicFactor": 0.0
      }
    }
  ],
  "meshes": [
    {
      "name": "Object_0",
      "primitives": [
        {
          "attributes": {
            "NORMAL": 1,
            "POSITION": 0,
            "TEXCOORD_0": 2
          },
          "indices": 3,
          "material": 0,
          "mode": 4
        }
      ]
    },
    {
      "name": "Object_1",
      "primitives": [
        {
          "attributes": {
            "NORMAL": 5,
            "POSITION": 4,
            "TEXCOORD_0": 6
          },
          "indices": 7,
          "material": 1,
          "mode": 4
        }
      ]
    }
  ],
  "nodes": [
    {
      "children": [
        1
      ],
      "matrix": [
        0.5714285969734192,
        0.0,
        0.0,
        0.0,
        0.0,
        1.268826370578278e-16,
        -0.5714285969734192,
        0.0,
        0.0,
        0.5714285969734192,
        1.268826370578278e-16,
        0.0,
        0.0,
        0.0,
        0.0,
        1.0
      ],
      "name": "Sketchfab_model"
    },
    {
      "children": [
        2,
        3
      ],
      "name": "soufriere.obj.cleaner.materialmerger.gles"
    },
    {
      "mesh": 0,
      "name": "Object_2"
    },
    {
      "mesh": 1,
      "name": "Object_3"
    }
  ],
  "samplers": [
    {
      "magFilter": 9729,
      "minFilter": 9987,
      "wrapS": 10497,
      "wrapT": 10497
    }
  ],
  "scene": 0,
  "scenes": [
    {
      "name": "Sketchfab_Scene",
      "nodes": [
        0
      ]
    }
  ],
  "textures": [
    {
      "sampler": 0,
      "source": 0
    },
    {
      "sampler": 0,
      "source": 1
    }
  ]
}
