{
  "accessors": [
    {
      "bufferView": 2,
      "componentType": 5126,
      "count": 4225,
      "max": [
        13778.6328125,
        7663.810546875,
        5942.2607421875
      ],
      "min": [
        -13127.2060546875,
        -9458.0869140625,
        1448.0020751953125
      ],
      "type": "VEC3"
    },
    {
      "bufferView": 2,
      "byteOffset": 50700,
      "componentType": 5126,
      "count": 4225,
      "max": [
        0.5936543941497803,
        0.6785896420478821,
        0.9999406337738037
      ],
      "min": [
        -0.6644420623779297,
        -0.7291973233222961,
        0.6642827987670898
      ],
      "type": "VEC3"
    },
    {
      "bufferView": 1,
      "componentType": 5126,
      "count": 4225,
      "max": [
        1.0000001192092896,
        1.0000001192092896
      ],
      "min": [
        -1.0618985690769023e-08,
        1.1137210265133035e-08
      ],
      "type": "VEC2"
    },
    {
      "bufferView": 1,
      "byteOffset": 33800,
      "componentType": 5126,
      "count": 4225,
      "max": [
        0.9990135431289673,
        0.9996157884597778
      ],
      "min": [
        2.6898074793280102e-05,
        0.0017991424538195133
      ],
      "type": "VEC2"
    },
    {
      "bufferView": 0,
      "componentType": 5125,
      "count": 24576,
      "type": "SCALAR"
    }
  ],
  "asset": {
    "extras": {
      "author": "Marco Sánchez (https://sketchfab.com/biomarco)",
      "license": "CC-BY-4.0 (http://creativecommons.org/licenses/by/4.0/)",
      "source": "https://sketchfab.com/3d-models/volcan-de-colima-96a0ea51be594deeb8c441074b9fcb66",
      "title": "Volcán de Colima"
    },
    "generator": "Sketchfab-12.68.0",
    "version": "2.0"
  },
  "bufferViews": [
    {
      "buffer": 0,
      "byteLength": 98304,
      "name": "floatBufferViews",
      "target": 34963
    },
    {
      "buffer": 0,
      "byteLength": 67600,
      "byteOffset": 98304,
      "byteStride": 8,
      "name": "floatBufferViews",
      "target": 34962
    },
    {
      "buffer": 0,
      "byteLength": 101400,
      "byteOffset": 165904,
      "byteStride": 12,
      "name": "floatBufferViews",
      "target": 34962
    }
  ],
  "buffers": [
    {
      "byteLength": 267304,
      "uri": "scene.bin"
    }
  ],
  "extensionsRequired": [
    "KHR_materials_pbrSpecularGlossiness"
  ],
  "extensionsUsed": [
    "KHR_materials_pbrSpecularGlossiness"
  ],
  "images": [
    {
      "uri": "textures/rastMat_diffuse.png"
    }
  ],
  "materials": [
    {
      "doubleSided": true,
      "extensions": {
        "KHR_materials_pbrSpecularGlossiness": {
          "diffuseFactor": [
            1.0,
            1.0,
            1.0,
            1.0
          ],
          "diffuseTexture": {
            "index": 0
          },
          "glossinessFactor": 0.8211145618000169,
          "specularFactor": [
            0.0,
            0.0,
            0.0
          ]
        }
      },
      "name": "rastMat"
    }
  ],
  "meshes": [
    {
      "name": "EXPORT_GOOGLE_SAT_WM_rastMat_0",
      "primitives": [
        {
          "attributes": {
            "NORMAL": 1,
            "POSITION": 0,
            "TEXCOORD_0": 2,
            "TEXCOORD_1": 3
          },
          "indices": 4,
          "material": 0,
          "mode": 4
        }
      ]
    }
  ],
  "nodes": [
    {
      "children": [
        1
      ],
      "matrix": [
        1.0,
        0.0,
        0.0,
        0.0,
        0.0,
        2.220446049250313e-16,
        -1.0,
        0.0,
        0.0,
        1.0,
        2.220446049250313e-16,
        0.0,
        0.0,
        0.0,
        0.0,
        1.0
      ],
      "name": "Sketchfab_model"
    },
    {
      "children": [
        2
      ],
      "matrix": [
        0.009999999776482582,
        0.0,
        0.0,
        0.0,
        0.0,
        0.0,
        0.009999999776482582,
        0.0,
        0.0,
        -0.009999999776482582,
        0.0,
        0.0,
        0.0,
        0.0,
        0.0,
        1.0
      ],
      "name": "519307d4510345a69dcdf502a0560dd7.fbx"
    },
    {
      "children": [
        3
      ],
      "name": "RootNode"
    },
    {
      "children": [
        4
      ],
      "matrix": [
        100.0,
        0.0,
        0.0,
        0.0,
        0.0,
        -1.629206793918314e-05,
        -99.99999999999868,
        0.0,
        0.0,
        99.99999999999868,
        -1.629206793918314e-05,
        0.0,
        0.0,
        0.0,
        0.0,
        1.0
      ],
      "name": "EXPORT_GOOGLE_SAT_WM"
    },
    {
      "mesh": 0,
      "name": "EXPORT_GOOGLE_SAT_WM_rastMat_0"
    }
  ],
  "samplers": [
    {
      "magFilter": 9729,
      "minFilter": 9987,
      "wrapS": 33071,
      "wrapT": 33071
    }
  ],
  "scene": 0,
  "scenes": [
    {
      "name": "Sketchfab_Scene",
      "nodes": [
        0
      ]
    }
  ],
  "textures": [
    {
      "sampler": 0,
      "source": 0
    }
  ]
}
